# xmcd
#
# Track frame offsets:
#	150
#	19815
#	40904
#	64901
#	74082
#	106232
#	138604
#	152074
#	176479
#	194055
#	218087
#	247958
#
# Disc length: 4066 seconds
#
# Revision: 0
# Processed by: cddbd v1.5.2PL0 Copyright (c) Steve Scherf et al.
# Submitted via: SynApp - FreeCDDB Version: 2.5
#
DISCID=b40fe00c
DTITLE=Eric Clapton - Crossroads 2007 Eric Clapton
DYEAR=2007
DGENRE=Blues
TTITLE0=Vince Gill and Albert Lee - Country Boy
TTITLE1=Vince Gill and Albert Lee and Sheryl Crow - If It Makes You Happy
TTITLE2=Vince Gill and Albert Lee, Sheryl Crow and Eric Clapton - Tulsa Time
TTITLE3=Vince Gill and Albert Lee, Willie Nelson and Sheryl Crow - On The Road Again
TTITLE4=John Mayer - Belief
TTITLE5=John Mayer - Gravity
TTITLE6=Los Lobos - Don't Worry Baby
TTITLE7=Los Lobos - May Y Mas
TTITLE8=Jeff Beck - Cause We've Ended As Lovers
TTITLE9=Jeff Beck - Big Block
TTITLE10=Eric Clapton - Tell The Truth
TTITLE11=Eric Clapton - Isn't It A Pity
EXTD=CD 2-3
EXTT0=
EXTT1=
EXTT2=
EXTT3=
EXTT4=
EXTT5=
EXTT6=
EXTT7=
EXTT8=
EXTT9=
EXTT10=
EXTT11=
PLAYORDER=
